<svg xmlns="http://www.w3.org/2000/svg" viewBox="0 0 24 24" id="invoice">
  <path fill="#00aa5b" d="M19.75,5V22a.755.755,0,0,1-.75.75H9.5a3,3,0,0,1-.95-.15,3.24,3.24,0,0,1-2.3-3.1V4c0-.69-1.56-1.25-2.25-1.25a.75.75,0,0,1,0-1.5H16A3.751,3.751,0,0,1,19.75,5Z"></path>
  <path fill="#145638" d="M1.945 1.9A1.847 1.847 0 001.25 3.385V10.75a2 2 0 002 2h3v-9A2.566 2.566 0 001.945 1.9zM22.75 17v3A2.748 2.748 0 0120 22.75H9.5a3 3 0 01-.95-.15 4.218 4.218 0 003.2-4.1V16.25H22A.755.755 0 0122.75 17z"></path>
  <path fill="#fff" d="M14 6.75H9a.75.75 0 010-1.5h5a.75.75 0 010 1.5zM17 9.75H9a.75.75 0 010-1.5h8a.75.75 0 010 1.5zM17 12.75H9a.75.75 0 010-1.5h8a.75.75 0 010 1.5z"></path>
</svg>
